<svg id="Calque_1" data-name="Calque 1" xmlns="http://www.w3.org/2000/svg" xmlns:xlink="http://www.w3.org/1999/xlink" viewBox="0 0 759.85 87"><defs><style>.cls-1{fill:none;}.cls-2{clip-path:url(#clip-path);}.cls-3{fill:#000000;}</style><clipPath id="clip-path" transform="translate(-120.08 -456.5)"><rect class="cls-1" width="1000" height="1000"/></clipPath></defs><title>niveau_zero-signatures</title><g class="cls-2"><path class="cls-3" d="M465.07,495.33a4.54,4.54,0,1,0,4.54,4.54,4.55,4.55,0,0,0-4.54-4.54" transform="translate(-120.08 -456.5)"/><path class="cls-3" d="M465.07,507.76a4.54,4.54,0,1,0,4.54,4.54,4.55,4.55,0,0,0-4.54-4.54" transform="translate(-120.08 -456.5)"/><path class="cls-3" d="M465.07,470.47a4.54,4.54,0,1,0,4.54,4.54,4.55,4.55,0,0,0-4.54-4.54" transform="translate(-120.08 -456.5)"/><path class="cls-3" d="M465.07,482.9a4.54,4.54,0,1,0,4.54,4.54,4.55,4.55,0,0,0-4.54-4.54" transform="translate(-120.08 -456.5)"/><path class="cls-3" d="M475.22,458a4.54,4.54,0,1,0,4.55,4.54,4.54,4.54,0,0,0-4.55-4.54" transform="translate(-120.08 -456.5)"/><path class="cls-3" d="M465.07,520.19a4.54,4.54,0,1,0,4.54,4.54,4.55,4.55,0,0,0-4.54-4.54" transform="translate(-120.08 -456.5)"/><path class="cls-3" d="M433.76,513.53c0,10.09-2.55,15.54-11.07,15.54s-11-5.45-11-15.54v-57H394.29v57.61c0,20.35,8.29,29.39,28.4,29.39s28.46-9,28.46-29.39V456.5H433.76Z" transform="translate(-120.08 -456.5)"/><rect class="cls-3" x="67.85" width="17.39" height="85.2"/><polygon class="cls-3" points="121.73 68.39 107.01 0 89.91 0 109.85 85.2 132.34 85.2 152.33 0 136.22 0 121.73 68.39"/><path class="cls-3" d="M485.38,532.62a4.54,4.54,0,1,0,4.55,4.54,4.54,4.54,0,0,0-4.55-4.54" transform="translate(-120.08 -456.5)"/><polygon class="cls-3" points="41.91 36.81 43.01 63.3 42.83 63.3 21.85 0 0 0 0 85.2 16.4 85.2 16.4 48.63 15.3 22.14 15.47 22.14 36.52 85.2 58.31 85.2 58.31 0 41.91 0 41.91 36.81"/><path class="cls-3" d="M349.51,456.5l-19.94,85.2h17.1l4.46-22h19.3l4.52,22h17l-19.94-85.2ZM354,505.59l6.66-32.51h.12l6.72,32.51Z" transform="translate(-120.08 -456.5)"/><polygon class="cls-3" points="174.49 49.56 201.38 49.56 201.38 34.95 174.49 34.95 174.49 14.61 205.15 14.61 205.15 0 157.1 0 157.1 85.2 205.38 85.2 205.38 70.6 174.49 70.6 174.49 49.56"/><path class="cls-3" d="M475.22,532.62a4.54,4.54,0,1,0,4.55,4.54,4.54,4.54,0,0,0-4.55-4.54" transform="translate(-120.08 -456.5)"/><polygon class="cls-3" points="586.19 0 568.8 0 568.8 85.2 614.93 85.2 614.93 70.6 586.19 70.6 586.19 0"/><polygon class="cls-3" points="531.07 49.56 557.96 49.56 557.96 34.95 531.07 34.95 531.07 14.61 561.73 14.61 561.73 0 513.68 0 513.68 85.2 561.96 85.2 561.96 70.6 531.07 70.6 531.07 49.56"/><polygon class="cls-3" points="450.62 14.61 471.02 14.61 471.02 85.2 488.41 85.2 488.41 14.61 508.81 14.61 508.81 0 450.62 0 450.62 14.61"/><rect class="cls-3" x="620.2" width="17.39" height="85.2"/><path class="cls-3" d="M862.42,506.11c9.16-3.65,14.08-11.18,14.08-23.18v-.58c0-18-11-25.85-30.72-25.85H822.14v85.2h17.38V508.78h5.63l16.11,32.92h18.66Zm-4-23.12c0,8-4.29,11.59-12.87,11.59h-6V470.7h6c8.58,0,12.87,3.59,12.87,11.59Z" transform="translate(-120.08 -456.5)"/><polygon class="cls-3" points="664.33 49.56 691.22 49.56 691.22 34.95 664.33 34.95 664.33 14.61 694.99 14.61 694.99 0 646.94 0 646.94 85.2 695.22 85.2 695.22 70.6 664.33 70.6 664.33 49.56"/><path class="cls-3" d="M485.38,458a4.54,4.54,0,1,0,4.55,4.54,4.54,4.54,0,0,0-4.55-4.54" transform="translate(-120.08 -456.5)"/><path class="cls-3" d="M534.71,456.5l-19.94,85.2h17.1l4.46-22h19.3l4.53,22h17l-19.94-85.2Zm4.52,49.09,6.67-32.51H546l6.73,32.51Z" transform="translate(-120.08 -456.5)"/><path class="cls-3" d="M495.54,458a4.54,4.54,0,1,0,4.54,4.54,4.54,4.54,0,0,0-4.54-4.54" transform="translate(-120.08 -456.5)"/><path class="cls-3" d="M495.54,532.62a4.54,4.54,0,1,0,4.54,4.54,4.54,4.54,0,0,0-4.54-4.54" transform="translate(-120.08 -456.5)"/><path class="cls-3" d="M505.7,520.19a4.54,4.54,0,1,0,4.54,4.54,4.54,4.54,0,0,0-4.54-4.54" transform="translate(-120.08 -456.5)"/><path class="cls-3" d="M505.7,470.47a4.54,4.54,0,1,0,4.54,4.54,4.54,4.54,0,0,0-4.54-4.54" transform="translate(-120.08 -456.5)"/><path class="cls-3" d="M505.7,482.9a4.54,4.54,0,1,0,4.54,4.54,4.54,4.54,0,0,0-4.54-4.54" transform="translate(-120.08 -456.5)"/><path class="cls-3" d="M505.7,507.76a4.54,4.54,0,1,0,4.54,4.54,4.54,4.54,0,0,0-4.54-4.54" transform="translate(-120.08 -456.5)"/><path class="cls-3" d="M505.7,495.33a4.54,4.54,0,1,0,4.54,4.54,4.54,4.54,0,0,0-4.54-4.54" transform="translate(-120.08 -456.5)"/></g></svg>