<svg id="Calque_1" data-name="Calque 1" xmlns="http://www.w3.org/2000/svg" xmlns:xlink="http://www.w3.org/1999/xlink" viewBox="0 0 940.53 87.37"><defs><style>.cls-1{fill:none;}.cls-2{clip-path:url(#clip-path);}.cls-3{fill:#000000;}</style><clipPath id="clip-path" transform="translate(-29.74 -456.31)"><rect class="cls-1" width="1000" height="1000"/></clipPath></defs><title>niveau_zero-signatures2</title><g class="cls-2"><path class="cls-3" d="M465.18,456.31a4.65,4.65,0,1,0,4.65,4.65,4.65,4.65,0,0,0-4.65-4.65" transform="translate(-29.74 -456.31)"/><path class="cls-3" d="M434,507.18a4.65,4.65,0,1,0,4.65,4.64,4.65,4.65,0,0,0-4.65-4.64" transform="translate(-29.74 -456.31)"/><path class="cls-3" d="M434,481.75a4.65,4.65,0,1,0,4.65,4.64,4.64,4.64,0,0,0-4.65-4.64" transform="translate(-29.74 -456.31)"/><path class="cls-3" d="M434,469a4.65,4.65,0,1,0,4.65,4.65A4.65,4.65,0,0,0,434,469" transform="translate(-29.74 -456.31)"/><path class="cls-3" d="M434,494.46a4.65,4.65,0,1,0,4.65,4.65,4.65,4.65,0,0,0-4.65-4.65" transform="translate(-29.74 -456.31)"/><path class="cls-3" d="M434,519.89a4.65,4.65,0,1,0,4.65,4.65,4.65,4.65,0,0,0-4.65-4.65" transform="translate(-29.74 -456.31)"/><path class="cls-3" d="M413.41,494.46a4.65,4.65,0,1,0,4.65,4.65,4.64,4.64,0,0,0-4.65-4.65" transform="translate(-29.74 -456.31)"/><path class="cls-3" d="M413.41,469a4.65,4.65,0,1,0,4.65,4.65,4.64,4.64,0,0,0-4.65-4.65" transform="translate(-29.74 -456.31)"/><path class="cls-3" d="M413.41,456.31a4.65,4.65,0,1,0,4.65,4.65,4.64,4.64,0,0,0-4.65-4.65" transform="translate(-29.74 -456.31)"/><path class="cls-3" d="M434,532.61a4.65,4.65,0,1,0,4.65,4.65,4.65,4.65,0,0,0-4.65-4.65" transform="translate(-29.74 -456.31)"/><path class="cls-3" d="M434,456.31a4.65,4.65,0,1,0,4.65,4.65,4.65,4.65,0,0,0-4.65-4.65" transform="translate(-29.74 -456.31)"/><path class="cls-3" d="M413.41,532.61a4.65,4.65,0,1,0,4.65,4.65,4.64,4.64,0,0,0-4.65-4.65" transform="translate(-29.74 -456.31)"/><path class="cls-3" d="M444.39,532.61a4.65,4.65,0,1,0,4.65,4.65,4.65,4.65,0,0,0-4.65-4.65" transform="translate(-29.74 -456.31)"/><path class="cls-3" d="M454.79,532.61a4.65,4.65,0,1,0,4.64,4.65,4.65,4.65,0,0,0-4.64-4.65" transform="translate(-29.74 -456.31)"/><path class="cls-3" d="M465.18,532.61a4.65,4.65,0,1,0,4.65,4.65,4.65,4.65,0,0,0-4.65-4.65" transform="translate(-29.74 -456.31)"/><path class="cls-3" d="M465.18,494.46a4.65,4.65,0,1,0,4.65,4.65,4.65,4.65,0,0,0-4.65-4.65" transform="translate(-29.74 -456.31)"/><path class="cls-3" d="M475.57,532.61a4.65,4.65,0,1,0,4.65,4.65,4.64,4.64,0,0,0-4.65-4.65" transform="translate(-29.74 -456.31)"/><path class="cls-3" d="M444.39,494.46a4.65,4.65,0,1,0,4.65,4.65,4.65,4.65,0,0,0-4.65-4.65" transform="translate(-29.74 -456.31)"/><path class="cls-3" d="M444.39,456.31A4.65,4.65,0,1,0,449,461a4.65,4.65,0,0,0-4.65-4.65" transform="translate(-29.74 -456.31)"/><path class="cls-3" d="M454.79,494.46a4.65,4.65,0,1,0,4.64,4.65,4.65,4.65,0,0,0-4.64-4.65" transform="translate(-29.74 -456.31)"/><path class="cls-3" d="M454.79,456.31a4.65,4.65,0,1,0,4.64,4.65,4.65,4.65,0,0,0-4.64-4.65" transform="translate(-29.74 -456.31)"/><path class="cls-3" d="M341.27,513.93c0,10-2.53,15.42-11,15.42s-10.94-5.41-10.94-15.42V457.28H302.07V514.5c0,20.21,8.23,29.19,28.21,29.19s28.26-9,28.26-29.19V457.28H341.27Z" transform="translate(-29.74 -456.31)"/><path class="cls-3" d="M371.84,532.61a4.65,4.65,0,1,0,4.65,4.65,4.65,4.65,0,0,0-4.65-4.65" transform="translate(-29.74 -456.31)"/><path class="cls-3" d="M257.6,457.28,237.79,541.9h17l4.43-21.81h19.17l4.49,21.81h16.92L280,457.28ZM262.09,506l6.62-32.29h.11L275.5,506Z" transform="translate(-29.74 -456.31)"/><path class="cls-3" d="M371.84,494.46a4.65,4.65,0,1,0,4.65,4.65,4.65,4.65,0,0,0-4.65-4.65" transform="translate(-29.74 -456.31)"/><path class="cls-3" d="M371.84,519.89a4.65,4.65,0,1,0,4.65,4.65,4.65,4.65,0,0,0-4.65-4.65" transform="translate(-29.74 -456.31)"/><polygon class="cls-3" points="120.9 68.89 106.27 0.97 89.29 0.97 109.09 85.59 131.43 85.59 151.29 0.97 135.29 0.97 120.9 68.89"/><path class="cls-3" d="M403,456.31a4.65,4.65,0,1,0,4.64,4.65,4.65,4.65,0,0,0-4.64-4.65" transform="translate(-29.74 -456.31)"/><polygon class="cls-3" points="173.29 50.19 200 50.19 200 35.68 173.29 35.68 173.29 15.47 203.74 15.47 203.74 0.97 156.02 0.97 156.02 85.59 203.97 85.59 203.97 71.08 173.29 71.08 173.29 50.19"/><polygon class="cls-3" points="41.62 37.52 42.71 63.83 42.54 63.83 21.7 0.97 0 0.97 0 85.59 16.29 85.59 16.29 49.27 15.2 22.96 15.37 22.96 36.27 85.59 57.91 85.59 57.91 0.97 41.62 0.97 41.62 37.52"/><path class="cls-3" d="M371.84,456.31a4.65,4.65,0,1,0,4.65,4.65,4.65,4.65,0,0,0-4.65-4.65" transform="translate(-29.74 -456.31)"/><rect class="cls-3" x="67.38" y="0.97" width="17.27" height="84.62"/><path class="cls-3" d="M392.63,456.31a4.65,4.65,0,1,0,4.64,4.65,4.65,4.65,0,0,0-4.64-4.65" transform="translate(-29.74 -456.31)"/><path class="cls-3" d="M403,532.61a4.65,4.65,0,1,0,4.64,4.65,4.65,4.65,0,0,0-4.64-4.65" transform="translate(-29.74 -456.31)"/><path class="cls-3" d="M403,494.46a4.65,4.65,0,1,0,4.64,4.65,4.65,4.65,0,0,0-4.64-4.65" transform="translate(-29.74 -456.31)"/><path class="cls-3" d="M392.63,494.46a4.65,4.65,0,1,0,4.64,4.65,4.65,4.65,0,0,0-4.64-4.65" transform="translate(-29.74 -456.31)"/><path class="cls-3" d="M382.23,532.61a4.65,4.65,0,1,0,4.65,4.65,4.65,4.65,0,0,0-4.65-4.65" transform="translate(-29.74 -456.31)"/><path class="cls-3" d="M403,481.75a4.65,4.65,0,1,0,4.64,4.64,4.64,4.64,0,0,0-4.64-4.64" transform="translate(-29.74 -456.31)"/><path class="cls-3" d="M382.23,494.46a4.65,4.65,0,1,0,4.65,4.65,4.65,4.65,0,0,0-4.65-4.65" transform="translate(-29.74 -456.31)"/><path class="cls-3" d="M392.63,532.61a4.65,4.65,0,1,0,4.64,4.65,4.65,4.65,0,0,0-4.64-4.65" transform="translate(-29.74 -456.31)"/><path class="cls-3" d="M382.23,507.18a4.65,4.65,0,1,0,4.65,4.64,4.64,4.64,0,0,0-4.65-4.64" transform="translate(-29.74 -456.31)"/><path class="cls-3" d="M382.23,456.31a4.65,4.65,0,1,0,4.65,4.65,4.65,4.65,0,0,0-4.65-4.65" transform="translate(-29.74 -456.31)"/><path class="cls-3" d="M475.57,456.31a4.65,4.65,0,1,0,4.65,4.65,4.64,4.64,0,0,0-4.65-4.65" transform="translate(-29.74 -456.31)"/><path class="cls-3" d="M579.11,456.31a4.65,4.65,0,1,0,4.64,4.65,4.65,4.65,0,0,0-4.64-4.65" transform="translate(-29.74 -456.31)"/><path class="cls-3" d="M589.5,532.61a4.65,4.65,0,1,0,4.65,4.65,4.65,4.65,0,0,0-4.65-4.65" transform="translate(-29.74 -456.31)"/><path class="cls-3" d="M579.11,532.61a4.65,4.65,0,1,0,4.64,4.65,4.65,4.65,0,0,0-4.64-4.65" transform="translate(-29.74 -456.31)"/><path class="cls-3" d="M599.89,519.89a4.65,4.65,0,1,0,4.65,4.65,4.65,4.65,0,0,0-4.65-4.65" transform="translate(-29.74 -456.31)"/><path class="cls-3" d="M599.89,507.18a4.65,4.65,0,1,0,4.65,4.64,4.64,4.64,0,0,0-4.65-4.64" transform="translate(-29.74 -456.31)"/><path class="cls-3" d="M589.5,456.31a4.65,4.65,0,1,0,4.65,4.65,4.65,4.65,0,0,0-4.65-4.65" transform="translate(-29.74 -456.31)"/><path class="cls-3" d="M558.32,469a4.65,4.65,0,1,0,4.65,4.65,4.65,4.65,0,0,0-4.65-4.65" transform="translate(-29.74 -456.31)"/><path class="cls-3" d="M558.32,481.75a4.65,4.65,0,1,0,4.65,4.64,4.64,4.64,0,0,0-4.65-4.64" transform="translate(-29.74 -456.31)"/><path class="cls-3" d="M568.71,456.31a4.65,4.65,0,1,0,4.65,4.65,4.65,4.65,0,0,0-4.65-4.65" transform="translate(-29.74 -456.31)"/><path class="cls-3" d="M568.71,532.61a4.65,4.65,0,1,0,4.65,4.65,4.65,4.65,0,0,0-4.65-4.65" transform="translate(-29.74 -456.31)"/><path class="cls-3" d="M599.89,494.46a4.65,4.65,0,1,0,4.65,4.65,4.65,4.65,0,0,0-4.65-4.65" transform="translate(-29.74 -456.31)"/><rect class="cls-3" x="801.83" y="0.97" width="17.27" height="84.62"/><polygon class="cls-3" points="768.05 0.97 750.78 0.97 750.78 85.59 796.61 85.59 796.61 71.08 768.05 71.08 768.05 0.97"/><polygon class="cls-3" points="845.66 50.19 872.37 50.19 872.37 35.68 845.66 35.68 845.66 15.47 876.11 15.47 876.11 0.97 828.39 0.97 828.39 85.59 876.34 85.59 876.34 71.08 845.66 71.08 845.66 50.19"/><path class="cls-3" d="M952.88,506.56c9.09-3.63,14-11.11,14-23V483c0-17.85-10.94-25.68-30.51-25.68H912.87V541.9h17.27V509.2h5.58l16,32.7h18.53Zm-4-23c0,7.94-4.26,11.51-12.78,11.51h-6V471.39h6c8.52,0,12.78,3.56,12.78,11.51Z" transform="translate(-29.74 -456.31)"/><polygon class="cls-3" points="713.31 50.19 740.02 50.19 740.02 35.68 713.31 35.68 713.31 15.47 743.76 15.47 743.76 0.97 696.04 0.97 696.04 85.59 743.99 85.59 743.99 71.08 713.31 71.08 713.31 50.19"/><path class="cls-3" d="M599.89,481.75a4.65,4.65,0,1,0,4.65,4.64,4.64,4.64,0,0,0-4.65-4.64" transform="translate(-29.74 -456.31)"/><polygon class="cls-3" points="633.41 15.47 653.67 15.47 653.67 85.59 670.94 85.59 670.94 15.47 691.21 15.47 691.21 0.97 633.41 0.97 633.41 15.47"/><path class="cls-3" d="M599.89,469a4.65,4.65,0,1,0,4.65,4.65,4.65,4.65,0,0,0-4.65-4.65" transform="translate(-29.74 -456.31)"/><path class="cls-3" d="M558.32,494.46a4.65,4.65,0,1,0,4.65,4.65,4.65,4.65,0,0,0-4.65-4.65" transform="translate(-29.74 -456.31)"/><path class="cls-3" d="M475.57,494.46a4.65,4.65,0,1,0,4.65,4.65,4.64,4.64,0,0,0-4.65-4.65" transform="translate(-29.74 -456.31)"/><path class="cls-3" d="M627.41,457.28l-19.8,84.62h17L629,520.09H648.2l4.49,21.81h16.92l-19.8-84.62ZM631.9,506l6.63-32.29h.11L645.32,506Z" transform="translate(-29.74 -456.31)"/><path class="cls-3" d="M517,507.18a4.65,4.65,0,1,0,4.64,4.64,4.65,4.65,0,0,0-4.64-4.64" transform="translate(-29.74 -456.31)"/><path class="cls-3" d="M496.16,481.75a4.65,4.65,0,1,0,4.65,4.64,4.63,4.63,0,0,0-4.65-4.64" transform="translate(-29.74 -456.31)"/><path class="cls-3" d="M496.16,456.31a4.65,4.65,0,1,0,4.65,4.65,4.64,4.64,0,0,0-4.65-4.65" transform="translate(-29.74 -456.31)"/><path class="cls-3" d="M506.55,456.31A4.65,4.65,0,1,0,511.2,461a4.65,4.65,0,0,0-4.65-4.65" transform="translate(-29.74 -456.31)"/><path class="cls-3" d="M506.55,494.46a4.65,4.65,0,1,0,4.65,4.65,4.65,4.65,0,0,0-4.65-4.65" transform="translate(-29.74 -456.31)"/><path class="cls-3" d="M496.16,469a4.65,4.65,0,1,0,4.65,4.65,4.64,4.64,0,0,0-4.65-4.65" transform="translate(-29.74 -456.31)"/><path class="cls-3" d="M558.32,507.18a4.65,4.65,0,1,0,4.65,4.64,4.64,4.64,0,0,0-4.65-4.64" transform="translate(-29.74 -456.31)"/><path class="cls-3" d="M496.16,532.61a4.65,4.65,0,1,0,4.65,4.65,4.64,4.64,0,0,0-4.65-4.65" transform="translate(-29.74 -456.31)"/><path class="cls-3" d="M496.16,519.89a4.65,4.65,0,1,0,4.65,4.65,4.64,4.64,0,0,0-4.65-4.65" transform="translate(-29.74 -456.31)"/><path class="cls-3" d="M496.16,507.18a4.65,4.65,0,1,0,4.65,4.64,4.64,4.64,0,0,0-4.65-4.64" transform="translate(-29.74 -456.31)"/><path class="cls-3" d="M496.16,494.46a4.65,4.65,0,1,0,4.65,4.65,4.64,4.64,0,0,0-4.65-4.65" transform="translate(-29.74 -456.31)"/><path class="cls-3" d="M537.73,469a4.65,4.65,0,1,0,4.65,4.65,4.65,4.65,0,0,0-4.65-4.65" transform="translate(-29.74 -456.31)"/><path class="cls-3" d="M537.73,481.75a4.65,4.65,0,1,0,4.65,4.64,4.64,4.64,0,0,0-4.65-4.64" transform="translate(-29.74 -456.31)"/><path class="cls-3" d="M517,494.46a4.65,4.65,0,1,0,4.64,4.65,4.65,4.65,0,0,0-4.64-4.65" transform="translate(-29.74 -456.31)"/><path class="cls-3" d="M558.32,519.89a4.65,4.65,0,1,0,4.65,4.65,4.65,4.65,0,0,0-4.65-4.65" transform="translate(-29.74 -456.31)"/><path class="cls-3" d="M537.73,532.61a4.65,4.65,0,1,0,4.65,4.65,4.65,4.65,0,0,0-4.65-4.65" transform="translate(-29.74 -456.31)"/><path class="cls-3" d="M527.34,519.89a4.65,4.65,0,1,0,4.65,4.65,4.65,4.65,0,0,0-4.65-4.65" transform="translate(-29.74 -456.31)"/><path class="cls-3" d="M517,456.31a4.65,4.65,0,1,0,4.64,4.65,4.65,4.65,0,0,0-4.64-4.65" transform="translate(-29.74 -456.31)"/><path class="cls-3" d="M527.34,456.31A4.65,4.65,0,1,0,532,461a4.65,4.65,0,0,0-4.65-4.65" transform="translate(-29.74 -456.31)"/><path class="cls-3" d="M527.34,494.46a4.65,4.65,0,1,0,4.65,4.65,4.65,4.65,0,0,0-4.65-4.65" transform="translate(-29.74 -456.31)"/></g></svg>